<?xml version="1.0" encoding="utf-8"?>
<!-- Generator: Adobe Illustrator 16.0.0, SVG Export Plug-In . SVG Version: 6.00 Build 0)  -->
<!DOCTYPE svg PUBLIC "-//W3C//DTD SVG 1.1//EN" "http://www.w3.org/Graphics/SVG/1.1/DTD/svg11.dtd">
<svg version="1.1" id="Layer_1" xmlns="http://www.w3.org/2000/svg" xmlns:xlink="http://www.w3.org/1999/xlink" x="0px" y="0px"
	 width="1349px" height="500px" viewBox="0 0 1349 500" enable-background="new 0 0 1349 500" xml:space="preserve">
<path fill="none" stroke="#000000" stroke-miterlimit="10" d="M657.163,53.279c0.199,1.125,0.176,2.238-0.07,3.339
	c-11.093,3.212-25.42,2.262-36.038-2.33c7.688-19.255,61.309-20.669,78.115-21.003c51.582-1.024,102.214-0.795,150.748,17.823
	c13.672,5.245,37.43,8.123,29.396,28.676c-6.011,15.377-35.483,20.763-50.056,18.58c14.857-5.642,36.128-9.984,52.408-13.881
	c37.915-9.075,78.097-5.592,116.621-12.423c41.49-7.357,77.124-3.765,118.122,3.584c11.728,2.102,51.497,8.134,45.32,30.012
	c-2.239,7.935-15.916,14.226-23.14,16.486c-0.386,0.602-0.538,1.263-0.458,1.984c33.203,15.593,108.783,2.919,127.414,45.129
	c9.548,21.63-3.794,46.575-23.033,57.174c-7.676,4.229-35.645,5.431-36.804,16.814c-0.495,4.862,8.646,14.358,11.086,17.804
	c8.876,12.529,17.27,24.167,22.958,38.616c10.166,25.819,13.125,48.703-12.104,64.447c-58.46,36.479-142.071,20.606-206.687,21.545
	c-28.266,0.411-56.127,3.933-84.333,4.653c-5.759,0.147-13.353-0.244-18.17,1.276c9.507,4.787,27.896,15.528,25.941,29.059
	c-1.797,12.43-35.825,24.688-44.099,28.685c-27.646,13.351-55.109,29.594-84.889,37.966c-41.545,11.68-94.666,4.166-136.389-2.359
	c-40.142-6.276-79.065-10.225-119.377-13.267c-9.816-0.741-31.16-2.92-32.696-15.841c11.543-3.464,44.52-5.896,48.784-15.164
	c-42.6-2.293-85.194-0.75-127.849-1.094c-53.485-0.433-109.563-4.888-160.981-20.305c-16.796-5.296-33.325-11.317-49.587-18.066
	c-8.301-3.483-29.061-9.683-33.848-18.813c-11.403-21.749,20.907-46.269,37.457-53.818c19.5-8.897,35.867-21.793,56.586-27.967
	c6.969-2.076,14.466-3.855,21.131-6.527c3.731,17.341-93.042,10.992-103.908,7.623c-26.793-8.309-65.114-29.623-71.628-59.396
	c-5.436-24.844,2.843-52.223,17.978-71.694c61.508-79.13,176.533-99.066,270.835-99.886c13.978-0.122,27.61-2.48,41.453-4.572
	c29.239-4.419,55.729-16.606,83.959-23.042c11.058-2.521,63.437-6.435,67.266,6.685"/>
<path fill="none" stroke="#000000" stroke-miterlimit="10" d="M86.232,57.93C72.774,70.575,50.219,59.543,64.7,44.883
	c15.856-16.054,50.118-12.988,58.707,6.417c11.875,26.827-8.489,32.453-25.805,46.691c-14.704,12.09-24.327,39.293-18.346,57.614"/>
<path fill="none" stroke="#000000" stroke-miterlimit="10" d="M118,442.5c25.22,0.58,51.733,0.288,76.92-1.151
	c-4.822-8.119-16.821-15.946-24.021-22.621c-5.889-5.458-16.227-9.919-20.117-17.171c-6.41,8.934-5.518,25.689,1.881,34.589
	c-11.156,7.667-8.019,35.483-2.813,46.099c-5.21-14.542,6.981-37.854,15.073-49.748c6.432-9.453,19.454-19.489,18.927-31.968
	c-8.685,7.528-22.091,12.684-32.098,19.948c-8.57,6.223-26.389,14.031-29.751,23.023"/>
<path fill="none" stroke="#000000" stroke-miterlimit="10" d="M1182,49.5c29.262,0,59.203,1.639,88.397-0.147
	c-14.267-9.38-30.634-19.488-43.12-30.84c-7.38,18.161-11.91,41.808-10.297,61.73c0.826-8.342,7.761-11.994,12.649-17.997
	c4.948-6.076,8.801-13.504,13.468-19.762c5.282-7.083,11.033-12.415,19.623-17.059c-10.193-0.007-19.205,2.474-28.979,5.078
	c-12.905,3.439-35.279,12.127-44.742,20.997"/>
</svg>
