<?xml version="1.0" encoding="utf-8"?>
<!-- Generator: Adobe Illustrator 16.0.0, SVG Export Plug-In . SVG Version: 6.00 Build 0)  -->
<!DOCTYPE svg PUBLIC "-//W3C//DTD SVG 1.1//EN" "http://www.w3.org/Graphics/SVG/1.1/DTD/svg11.dtd">
<svg version="1.1" id="Layer_1" xmlns="http://www.w3.org/2000/svg" xmlns:xlink="http://www.w3.org/1999/xlink" x="0px" y="0px"
	 width="1349px" height="500px" viewBox="0 0 1349 500" enable-background="new 0 0 1349 500" xml:space="preserve">
<path fill="none" stroke="#000000" stroke-miterlimit="10" d="M626.383,49.153c0.204,1.125,0.179,2.238-0.072,3.339
	c-11.319,3.212-25.938,2.262-36.773-2.33c7.846-19.255,62.562-20.669,79.711-21.003c52.632-1.024,104.296-0.795,153.821,17.823
	c13.951,5.245,38.193,8.123,29.996,28.676c-6.136,15.377-36.208,20.763-51.079,18.58c15.16-5.642,36.865-9.984,53.478-13.881
	c38.689-9.075,79.69-5.592,119-12.423c42.337-7.357,78.699-3.765,120.533,3.584c11.966,2.102,52.547,8.134,46.243,30.012
	c-2.284,7.935-16.241,14.226-23.613,16.486c-0.393,0.602-0.548,1.263-0.466,1.984c33.881,15.593,111.003,2.919,130.014,45.129
	c9.741,21.63-3.872,46.575-23.503,57.174c-7.833,4.229-36.372,5.431-37.556,16.814c-0.505,4.862,8.822,14.359,11.312,17.804
	c9.059,12.529,17.624,24.168,23.428,38.617c10.373,25.818,13.393,48.703-12.351,64.447
	c-59.653,36.479-144.971,20.604-210.906,21.545c-28.843,0.41-57.272,3.932-86.053,4.65c-5.877,0.148-13.626-0.242-18.541,1.277
	c9.7,4.787,28.466,15.527,26.471,29.059c-1.835,12.432-36.557,24.688-45.001,28.686c-28.209,13.352-56.232,29.594-86.621,37.967
	c-42.393,11.68-96.596,4.166-139.17-2.359c-40.962-6.275-80.678-10.225-121.813-13.268c-10.017-0.74-31.796-2.92-33.363-15.84
	c11.778-3.465,45.428-5.896,49.779-15.164c-43.471-2.293-86.932-0.75-130.459-1.094c-54.576-0.436-111.798-4.891-164.264-20.307
	c-17.139-5.297-34.005-11.316-50.6-18.064c-8.47-3.484-29.654-9.686-34.538-18.814c-11.636-21.748,21.333-46.268,38.221-53.816
	c19.898-8.896,36.599-21.793,57.741-27.969c7.111-2.076,14.761-3.854,21.562-6.525c3.807,17.342-94.94,10.99-106.028,7.621
	c-27.34-8.309-66.442-29.621-73.089-59.396c-5.547-24.844,2.901-52.223,18.345-71.694c62.763-79.13,180.135-99.066,276.361-99.886
	c14.265-0.122,28.174-2.479,42.299-4.572c29.836-4.419,56.867-16.606,85.672-23.042c11.283-2.521,64.732-6.435,68.638,6.685"/>
<path fill="none" stroke="#000000" stroke-miterlimit="10" d="M86.232,57.93C72.774,70.575,50.219,59.543,64.7,44.883
	c15.856-16.054,50.118-12.988,58.707,6.417c11.875,26.827-8.489,32.453-25.805,46.691c-14.704,12.09-24.327,39.293-18.346,57.614"/>
<path fill="none" stroke="#000000" stroke-miterlimit="10" d="M118,442.5c25.22,0.58,51.733,0.288,76.92-1.151
	c-4.822-8.117-16.821-15.944-24.021-22.621c-5.889-5.458-16.227-9.919-20.117-17.171c-6.41,8.936-5.518,25.689,1.881,34.591
	c-11.156,7.665-8.019,35.481-2.813,46.099c-5.21-14.542,6.981-37.854,15.073-49.748c6.432-9.453,19.454-19.489,18.927-31.968
	c-8.685,7.526-22.091,12.684-32.098,19.946c-8.57,6.225-26.389,14.031-29.751,23.023"/>
<path fill="none" stroke="#000000" stroke-miterlimit="10" d="M1162.005,59.82c29.262,0,59.203,1.639,88.396-0.147
	c-14.268-9.38-30.635-19.488-43.119-30.84c-7.381,18.161-11.91,41.808-10.297,61.73c0.824-8.342,7.761-11.994,12.647-17.997
	c4.948-6.076,8.801-13.504,13.468-19.762c5.282-7.083,11.033-12.415,19.623-17.059c-10.191-0.007-19.204,2.474-28.979,5.078
	c-12.905,3.439-35.279,12.127-44.742,20.997"/>
<path fill="none" stroke="#000000" stroke-miterlimit="10" d="M82,162.5c-6.642-0.406-10.421,9.628-4.246,13.297
	c8.323,4.945,8.97-6.887,8.071-12.123c-2.012-0.102-1.69-1.37-2.826-2.174"/>
<rect x="260.401" y="209.589" fill="none" width="884.199" height="165.822"/>
<text transform="matrix(1 0 0 1 270.5 225.5488)"><tspan x="0" y="0" font-family="'Inconsolata-Regular'" font-size="24">Developer Student Clubs (DSC) are community groups for students from any </tspan><tspan x="-6" y="28.8" font-family="'Inconsolata-Regular'" font-size="24">academic background in their undergraduate or graduate term. By joining a </tspan><tspan x="6" y="57.6" font-family="'Inconsolata-Regular'" font-size="24">DSC, students build their professional and personal network, get access </tspan><tspan x="6" y="86.399" font-family="'Inconsolata-Regular'" font-size="24">to Google developer resources, and work together to build solutions for </tspan><tspan x="108" y="115.2" font-family="'Inconsolata-Regular'" font-size="24">local problems in a peer-to-peer learning environment.</tspan></text>
<rect x="564" y="137.75" fill="none" width="263" height="26.5"/>
<text transform="matrix(1 0 0 1 568 157.6997)" font-family="'Inconsolata-Regular'" font-size="30">What is the DSC ?</text>
</svg>
