<?xml version="1.0" encoding="utf-8"?>
<!-- Generator: Adobe Illustrator 16.0.0, SVG Export Plug-In . SVG Version: 6.00 Build 0)  -->
<!DOCTYPE svg PUBLIC "-//W3C//DTD SVG 1.1//EN" "http://www.w3.org/Graphics/SVG/1.1/DTD/svg11.dtd">
<svg version="1.1"
	 id="svg3556" xmlns:dc="http://purl.org/dc/elements/1.1/" xmlns:cc="http://creativecommons.org/ns#" xmlns:rdf="http://www.w3.org/1999/02/22-rdf-syntax-ns#" xmlns:svg="http://www.w3.org/2000/svg" xmlns:sodipodi="http://sodipodi.sourceforge.net/DTD/sodipodi-0.dtd" xmlns:inkscape="http://www.inkscape.org/namespaces/inkscape" inkscape:version="0.91 r13725" sodipodi:docname="multicolourpresentation.svg"
	 xmlns="http://www.w3.org/2000/svg" xmlns:xlink="http://www.w3.org/1999/xlink" x="0px" y="0px" width="1366px" height="400px"
	 viewBox="-8.5 50 1366 400" enable-background="new -8.5 50 1366 400" xml:space="preserve">
	<g id="layer1" transform="translate(130.96 -48.601)">
	<g id="g2581" transform="matrix(0.852 .072616 -.072616 0.852 2073.1 349.57)">
		
			<path id="rect3536" fill="#FFFFFF" stroke="#000000" stroke-width="2" stroke-linecap="round" stroke-linejoin="round" stroke-miterlimit="3.5032" d="
			M-1561.596-133.756l293.311-24.999c1.086-0.093,2.041,0.719,2.134,1.813l19.75,231.726c0.093,1.092-0.711,2.055-1.796,2.148
			l-293.311,24.999c-1.086,0.092-2.041-0.72-2.134-1.813l-19.75-231.726C-1563.486-132.702-1562.682-133.664-1561.596-133.756z"/>
		<path id="rect2617" fill="#FFFFFF" d="M-1558.283-131.474c6.311,74.046,12.622,148.094,18.933,222.144l290.273-24.741
			c-6.311-74.046-12.622-148.093-18.933-222.143L-1558.283-131.474L-1558.283-131.474z M-1555.198-129.163
			c94.849-8.084,189.691-16.168,284.54-24.252c6.166,72.344,12.332,144.687,18.498,217.034
			c-94.849,8.084-189.694,16.168-284.542,24.251C-1542.868,15.528-1549.034-56.816-1555.198-129.163z"/>
		
			<path id="path2583" sodipodi:nodetypes="ccccccc" inkscape:connector-curvature="0" fill="#2293F5" stroke="#000000" stroke-width="2" stroke-linecap="round" stroke-linejoin="round" stroke-miterlimit="3.5032" d="
			M-1244.901-92.107c20.55,1.716,17.108,31.385-1.257,41.343c-12.596,14.854-34.195,11.954-51.785,11.02
			c-13.227,2.517-22.923-9.322-9.006-16.609c14.603-9.046,38.758,2.543,47.017-16.951c5.001-6.275,2.949-8.833,9.056-13.221
			L-1244.901-92.107z"/>
		
			<path id="path2585" fill="#2293F5" stroke="#000000" stroke-width="2" stroke-linecap="round" stroke-linejoin="round" stroke-miterlimit="3.5032" d="
			M-1204.752-107.219c-12.993,6.192-44.392,3.295-35.986,24.381c3.834,17.684,7.668,35.369,11.5,53.051
			c-6.109,16.028-6.114,33.01-3.238,49.41c3.293,36.005,6.588,72.009,9.883,108.009c15.529,5.645,32.819-6.036,25.267-21.045
			c0.931-32.097,1.863-64.196,2.794-96.295l2.796,110.883c15.54,5.313,32.653-5.576,25.209-20.769
			c0.87-35.957,12.508-75.198,2.701-107.895c-9.808-32.695-0.396-64.594-9.018-97.822c-10.194-3.572-21.332-0.642-31.906-1.916
			L-1204.752-107.219z"/>
		
			<path id="path2595" fill="#F58423" stroke="#000000" stroke-width="2" stroke-linecap="round" stroke-linejoin="round" stroke-miterlimit="3.5032" d="
			M-1174.921,121.952c-19.904-6.495-15.849,27.453,3.385,17.369C-1159.468,136.166-1169.947,125.687-1174.921,121.952z"/>
		
			<path id="path2597" fill="#F58423" stroke="#000000" stroke-width="2" stroke-linecap="round" stroke-linejoin="round" stroke-miterlimit="3.5032" d="
			M-1201.442,129.532c-15.934-7.773-34.396,19.42-12.505,22.219C-1199.759,152.655-1196.512,138.903-1201.442,129.532z"/>
		
			<path id="path2601" fill="#F58423" stroke="#000000" stroke-width="2" stroke-linecap="round" stroke-linejoin="round" stroke-miterlimit="3.5032" d="
			M-1192.238-126.214c9.063,19.826-25.458,36.781-30.468,14.141c-10.438-15.865,9.25-47.822,24.548-29.248
			C-1194.847-137.104-1192.888-131.724-1192.238-126.214L-1192.238-126.214z"/>
		
			<path id="path2607" fill="#F58423" stroke="#000000" stroke-width="2" stroke-linecap="round" stroke-linejoin="round" stroke-miterlimit="3.5032" d="
			M-1306.416-47.857c-9.382,26.572-50.974-9.72-13.888-9.904C-1313.698-57.819-1305.02-54.863-1306.416-47.857z"/>
		
			<path id="path2615" fill="#2293F5" stroke="#000000" stroke-width="2" stroke-linecap="round" stroke-linejoin="round" stroke-miterlimit="3.5032" d="
			M-1170.43-106.575c-12.026-0.331-11.222,41.476,2.889,59.204c-16.432,10.254,11.771,47.963,14.46,17.483
			c20.969-27.597-10.309-73.13-17.35-76.691L-1170.43-106.575z"/>
		
			<path id="path2605" fill="#F58423" stroke="#000000" stroke-width="2" stroke-linecap="round" stroke-linejoin="round" stroke-miterlimit="3.5032" d="
			M-1167.355-10.452c-21.918-9.917,19.789-33.331,11.931-8.115C-1156.801-14.072-1161.342-8.571-1167.355-10.452z"/>
	</g>
	<g id="g2593" transform="matrix(-1 0 0 1 -2984.9 291.26)">
		
			<path id="path2710" fill="#E1DC4C" stroke="#000000" stroke-width="2" stroke-linecap="round" stroke-linejoin="round" stroke-miterlimit="3.5032" d="
			M-4013.3-8.891c22.536,20.41,15.274,45.924,6.8,71.303c-0.283,9.861-5.654,26.317-11.376,8.965
			c-1.93-22.419-9.474-60.725-6.033-68.86c-0.247-8.049,6.092-11.726,10.609-11.406V-8.891z"/>
		
			<path id="path2610" fill="#F58423" stroke="#000000" stroke-width="2" stroke-linecap="round" stroke-linejoin="round" stroke-miterlimit="3.5032" d="
			M-3734.251,142.865c-21.879-3.327,1.745,30.476,9.528,11.205C-3727.901,150.335-3731.075,146.601-3734.251,142.865z"/>
		
			<path id="path2656" fill="#E968D0" stroke="#000000" stroke-width="2" stroke-linecap="round" stroke-linejoin="round" stroke-miterlimit="3.5032" d="
			M-3743.21,153.126c-20.181-6.499-20.181,24.442-0.281,13.455C-3738.879,163.909-3743.864,157.114-3743.21,153.126z"/>
		
			<path id="path2692" fill="#2293F5" stroke="#000000" stroke-width="2" stroke-linecap="round" stroke-linejoin="round" stroke-miterlimit="3.5032" d="
			M-3692.25-40.986c-10.218,3.894-11.136,30.009-8.077,45.385c-17.829-2.282-30.404,10.321-19.615,24.095
			c24.465,2.186,47.603-18.433,41.22-39.536c-4.088-10.813-10.14-31.744-13.528-29.942L-3692.25-40.986z"/>
		
			<path id="path2600" fill="#F58423" stroke="#000000" stroke-width="2" stroke-linecap="round" stroke-linejoin="round" stroke-miterlimit="3.5032" d="
			M-3684.113-16.042c-22.538,20.41-15.274,45.924-6.802,71.303c0.285,9.86,5.656,26.316,11.378,8.965
			c1.93-22.42,9.474-60.725,6.033-68.86C-3673.256-12.683-3679.596-16.36-3684.113-16.042L-3684.113-16.042z"/>
		
			<path id="path2654" fill="#2293F5" stroke="#000000" stroke-width="2" stroke-linecap="round" stroke-linejoin="round" stroke-miterlimit="3.5032" d="
			M-3780.651-40.256c9.266-1.012,12.83,25.186,4.183,40.633c15.321,8.849,41.34,17.694,18.603,33.064
			c-20.924-8.981-37.733-24.512-32.266-46.935C-3789.876-23.6-3784.494-32.494-3780.651-40.256L-3780.651-40.256z"/>
		
			<path id="path2638" fill="#2293F5" stroke="#000000" stroke-width="2" stroke-linecap="round" stroke-linejoin="round" stroke-miterlimit="3.5032" d="
			M-3737.416-52.976c-13.887,7.077-51.49,0.732-43.32,20.323c5.242,21.614,13.115,43.271,9.041,65.573
			c0.73,40.286,7.138,80.354,10.066,120.563c-7.915,19.461,35.825,15.179,26.198-2.536c0.42-29.942,0.841-59.885,1.262-89.828
			l0.103,95.831c10.531-6.561,8.975-28.488,13.446-40.384c6.088-33.545,15.175-66.844,15.498-100.932
			c3.297-19.36,9.336-38.289,13.502-57.528L-3737.416-52.976L-3737.416-52.976z"/>
		
			<path id="path2632" fill="#EB5147" stroke="#000000" stroke-width="2" stroke-linecap="round" stroke-linejoin="round" stroke-miterlimit="3.5032" d="
			M-3766.965-38.798c2.36,32.612-49.607,7.502-25.656-12.794C-3782.649-64.428-3764.716-50.642-3766.965-38.798L-3766.965-38.798z"
			/>
		
			<path id="path2674" fill="#F58423" stroke="#000000" stroke-width="2" stroke-linecap="round" stroke-linejoin="round" stroke-miterlimit="3.5032" d="
			M-3780.855,1.069c12.577-21.418,27.914,18.382,1.735,5.5l-1.604-2.479L-3780.855,1.069L-3780.855,1.069z"/>
		
			<path id="path2652" fill="#E968D0" stroke="#000000" stroke-width="2" stroke-linecap="round" stroke-linejoin="round" stroke-miterlimit="3.5032" d="
			M-3718.017-72.111c5.393,31.625-49.429,16.968-31.812-8.523C-3743.588-102.029-3714.691-90.91-3718.017-72.111z"/>
		
			<path id="path2612" fill="#EB5147" stroke="#000000" stroke-width="2" stroke-linecap="round" stroke-linejoin="round" stroke-miterlimit="3.5032" d="
			M-3789.24,138.026c-18.571-23.021-17.275,26.773-2.839,9.178C-3791.132,144.144-3790.186,141.086-3789.24,138.026z"/>
		
			<path id="path2630" fill="#EB5147" stroke="#000000" stroke-width="2" stroke-linecap="round" stroke-linejoin="round" stroke-miterlimit="3.5032" d="
			M-3779.375,151.401c-24.729-4.839-2.554,35.178,6.606,12.142C-3773.242,158.882-3778.106,155.834-3779.375,151.401z"/>
		
			<path id="path2604" fill="#F58423" stroke="#000000" stroke-width="2" stroke-linecap="round" stroke-linejoin="round" stroke-miterlimit="3.5032" d="
			M-3742.676-12.932c6.775,13.368,18.119,27.026-5.005,31.048c-11.062,8.332-18.895,11.438-15.561-4.301
			C-3768.31-1.669-3753.86-4.854-3742.676-12.932L-3742.676-12.932z"/>
		
			<path id="path2628" fill="#83F4E2" stroke="#000000" stroke-width="2" stroke-linecap="round" stroke-linejoin="round" stroke-miterlimit="3.5032" d="
			M-3784.061-25.798c-16.422,1.877-38.521,0.043-27.123,20.116c4.855,19.35-1.422,35.499-3.366,54.309
			c-3.742,36.199,12.779,77.08,19.364,115.585c24.705,5.985,23.281-11.962,19.101-27.722c-2.438-20.828-4.878-41.659-7.317-62.484
			l5.592,43.859c6.627-21.047,29.213-54.917,22.976-72.171c-6.097-16.868-6.055-32.605-2.715-49.44
			c11.864-20.974-11.106-15.468-26.511-22.047V-25.798z"/>
		
			<path id="path2636" fill="#F58423" stroke="#000000" stroke-width="2" stroke-linecap="round" stroke-linejoin="round" stroke-miterlimit="3.5032" d="
			M-3811.473-22.797c2.462,14.721,13.067,46.172-14.864,42.153C-3830.962,2.723-3827.656-12.106-3811.473-22.797z"/>
		
			<path id="path2708" fill="#22BBF5" stroke="#000000" stroke-width="2" stroke-linecap="round" stroke-linejoin="round" stroke-miterlimit="3.5032" d="
			M-3794.376-33.648c-9.193-1.787-14.433,31.043-6.073,46.714c-14.063,5.939,2.323,39.044,8.659,15.522
			c19.978-18.941,2.326-58.561-2.586-62.239V-33.648z"/>
		
			<path id="path2680" fill="#F58423" stroke="#000000" stroke-width="2" stroke-linecap="round" stroke-linejoin="round" stroke-miterlimit="3.5032" d="
			M-3889.146,155.397c28.11-8.869,4.775,32.53-5.385,10.291C-3894.94,161.621-3891.736,158.338-3889.146,155.397z"/>
		
			<path id="path2660" fill="#53D269" stroke="#000000" stroke-width="2" stroke-linecap="round" stroke-linejoin="round" stroke-miterlimit="3.5032" d="
			M-3841.433,156.256c-20.647-9.048-33.106,29.865-7.213,22.39C-3839.283,174.194-3843.581,163.76-3841.433,156.256z"/>
		
			<path id="path2682" fill="#F58423" stroke="#000000" stroke-width="2" stroke-linecap="round" stroke-linejoin="round" stroke-miterlimit="3.5032" d="
			M-3862.557,151.747c-21.763-7.403-6.499,25.127,4.783,10.037C-3860.46,158.904-3860.88,155.061-3862.557,151.747z"/>
		
			<path id="path2626" fill="#F58423" stroke="#000000" stroke-width="2" stroke-linecap="round" stroke-linejoin="round" stroke-miterlimit="3.5032" d="
			M-3841.598-19.046c-4.065,10.173-7.638,40.527,13.045,28.563C-3809.344,0.331-3837.233-19.963-3841.598-19.046z"/>
		
			<path id="path2678" fill="#BAD873" stroke="#000000" stroke-width="2" stroke-linecap="round" stroke-linejoin="round" stroke-miterlimit="3.5032" d="
			M-3872.542-25.779c-18.83,3.909-37.579,8.168-24.719,27.828c7.845,16.81,1.227,33.063-1.537,50.205
			c-4.036,25.05,2.922,51.185,3.632,76.78c1.598,14.735-4.189,48.997,20.863,32.368c1.943-21.854,3.074-67.082,1.261-74.998
			c-0.517,24.861-0.762,49.726-0.814,74.592c23.173,9.434,13.428-28.023,21.029-39.381c5.067-23.919,21.527-50.286,15.201-71.757
			c-6.921-23.49,4.073-52.008-4.354-69.17c-10.188-2.156-20.374-4.313-30.562-6.469V-25.779z"/>
		
			<path id="path2684" fill="#F58423" stroke="#000000" stroke-width="2" stroke-linecap="round" stroke-linejoin="round" stroke-miterlimit="3.5032" d="
			M-3855.57-42.074c2.359,32.612-49.608,7.503-25.658-12.793C-3871.254-67.702-3853.322-53.917-3855.57-42.074z"/>
		
			<path id="path2690" fill="#F58423" stroke="#000000" stroke-width="2" stroke-linecap="round" stroke-linejoin="round" stroke-miterlimit="3.5032" d="
			M-3827.665,4.543c8.63-22.919,30.818,14.228,2.688,5.185L-3827,7.506L-3827.665,4.543L-3827.665,4.543L-3827.665,4.543z"/>
		
			<path id="path2618" fill="#E1DC4C" stroke="#000000" stroke-width="2" stroke-linecap="round" stroke-linejoin="round" stroke-miterlimit="3.5032" d="
			M-4001.383,166.113c-29.235-4.528-5.395,27.906,8.627,11.684C-3994.598,173.281-3999.36,170.53-4001.383,166.113z"/>
		
			<path id="path2620" fill="#E1DC4C" stroke="#000000" stroke-width="2" stroke-linecap="round" stroke-linejoin="round" stroke-miterlimit="3.5032" d="
			M-3975.533,157.548c-32.858-1.829,8.123,27.355,7.821,10.425L-3975.533,157.548z"/>
		
			<path id="path2658" fill="#53D269" stroke="#000000" stroke-width="2" stroke-linecap="round" stroke-linejoin="round" stroke-miterlimit="3.5032" d="
			M-3824.336,158.665c-27.556-6.244-5.196,33.331,8.221,13.983C-3816.327,167.089-3822.6,163.745-3824.336,158.665z"/>
		
			<path id="path2662" fill="#C347D7" stroke="#000000" stroke-width="2" stroke-linecap="round" stroke-linejoin="round" stroke-miterlimit="3.5032" d="
			M-3909.778,162.409c-27.451-6.28-5.447,31.711,2.605,10.483C-3908.041,169.399-3908.909,165.904-3909.778,162.409z"/>
		
			<path id="path2702" fill="#C347D7" stroke="#000000" stroke-width="2" stroke-linecap="round" stroke-linejoin="round" stroke-miterlimit="3.5032" d="
			M-3935.75,159.419c-20.647-9.046-33.106,29.868-7.213,22.392C-3933.598,177.359-3937.898,166.923-3935.75,159.419z"/>
		
			<path id="path2704" fill="#F58423" stroke="#000000" stroke-width="2" stroke-linecap="round" stroke-linejoin="round" stroke-miterlimit="3.5032" d="
			M-3734.991,154.47c28.111-8.87,4.777,32.529-5.385,10.292C-3740.784,160.695-3737.581,157.41-3734.991,154.47z"/>
		
			<path id="path2706" fill="#F58423" stroke="#000000" stroke-width="2" stroke-linecap="round" stroke-linejoin="round" stroke-miterlimit="3.5032" d="
			M-3707.085,152.855c-21.764-7.404-6.499,25.125,4.782,10.037C-3704.991,160.011-3705.41,156.166-3707.085,152.855z"/>
		
			<path id="path2598" fill="#F58423" stroke="#000000" stroke-width="2" stroke-linecap="round" stroke-linejoin="round" stroke-miterlimit="3.5032" d="
			M-3818.911,19.199c15.525,20.185-35.342,15.952-10.96-0.764C-3826.508,16.782-3821.843,16.693-3818.911,19.199z"/>
		
			<path id="path2606" fill="#F58423" stroke="#000000" stroke-width="2" stroke-linecap="round" stroke-linejoin="round" stroke-miterlimit="3.5032" d="
			M-3689.002,81.894c-16.849-18.946,30.185-15.271,6.342,0.819l-3.191,0.3L-3689.002,81.894L-3689.002,81.894L-3689.002,81.894z"/>
		
			<path id="path2608" fill="#F58423" stroke="#000000" stroke-width="2" stroke-linecap="round" stroke-linejoin="round" stroke-miterlimit="3.5032" d="
			M-4019.753,86.831c-16.848-18.943,30.185-15.27,6.343,0.82l-3.19,0.299L-4019.753,86.831L-4019.753,86.831L-4019.753,86.831z"/>
		
			<path id="path2616" fill="#9082DE" stroke="#000000" stroke-width="2" stroke-linecap="round" stroke-linejoin="round" stroke-miterlimit="3.5032" d="
			M-3992.546-18.907c-17.188,4.835-37.242,8.322-24.296,27.323c12.297,21.698-1.323,40.905-2.257,62.71
			c-1.532,35.812,2.932,72.191,4.563,108.276c25.27,4.929,15.248-22.093,19.479-35.454c1.745-17.483,3.492-34.966,5.238-52.451
			c0.379,26.532,0.756,53.067,1.133,79.602c28.245,6.975,16.511-27.563,23.347-42.037c3.604-22.572,15.376-46.583,10.813-67.72
			c-4.443-20.577-11.429-40.351-7.379-61.405c9.009-22.72-14.186-14.045-30.643-18.846L-3992.546-18.907z"/>
		
			<path id="path2622" sodipodi:nodetypes="ccccc" inkscape:connector-curvature="0" fill="#F58423" stroke="#000000" stroke-width="2" stroke-linecap="round" stroke-linejoin="round" stroke-miterlimit="3.5032" d="
			M-3962.04-22.035c-11.72,9.431,0.488,42.767,26.281,37.528c23.313-9.97-7.863-39.526-14.799-44.715l-7.278-0.306L-3962.04-22.035z
			"/>
		
			<path id="path2624" fill="#E1DC4C" stroke="#000000" stroke-width="2" stroke-linecap="round" stroke-linejoin="round" stroke-miterlimit="3.5032" d="
			M-3980.054-39.117c8.882,23.554-34.606,22.643-29.491-0.84C-4006.684-58.482-3982.179-57.549-3980.054-39.117z"/>
		
			<path id="path2644" fill="#EBB777" stroke="#000000" stroke-width="2" stroke-linecap="round" stroke-linejoin="round" stroke-miterlimit="3.5032" d="
			M-3881.501-31.941c-12.462,0.647-12.397,32.507-9.342,47.88c-17.827-2.282-30.402,10.322-19.615,24.094
			c24.468,2.188,47.604-18.432,41.222-39.535c-4.088-10.813-7.757-32.243-12.267-32.439L-3881.501-31.941z"/>
		
			<path id="path2648" fill="#C347D7" stroke="#000000" stroke-width="2" stroke-linecap="round" stroke-linejoin="round" stroke-miterlimit="3.5032" d="
			M-3911.75-47.277c4.062,32.708-50.792,13.042-28.875-11.612C-3931.777-75.632-3908.407-62.373-3911.75-47.277z"/>
		
			<path id="path2650" fill="#53D269" stroke="#000000" stroke-width="2" stroke-linecap="round" stroke-linejoin="round" stroke-miterlimit="3.5032" d="
			M-3821.583-59.529c4.063,32.708-50.791,13.042-28.875-11.611C-3841.61-87.883-3818.24-74.625-3821.583-59.529z"/>
		
			<path id="path2664" fill="#F58423" stroke="#000000" stroke-width="2" stroke-linecap="round" stroke-linejoin="round" stroke-miterlimit="3.5032" d="
			M-3942.779,51.907c-6.142,23.855-37.104-12.369-6.794-7.704C-3945.93,45.291-3942.696,48.287-3942.779,51.907z"/>
		
			<path id="path2666" fill="#F58423" stroke="#000000" stroke-width="2" stroke-linecap="round" stroke-linejoin="round" stroke-miterlimit="3.5032" d="
			M-3908.174,28.518c-6.143,23.854-37.104-12.369-6.794-7.703C-3911.326,21.902-3908.091,24.899-3908.174,28.518z"/>
		
			<path id="path2668" fill="#F58423" stroke="#000000" stroke-width="2" stroke-linecap="round" stroke-linejoin="round" stroke-miterlimit="3.5032" d="
			M-3825.692,27.401c-6.144,23.854-37.104-12.369-6.794-7.703C-3828.843,20.784-3825.61,23.781-3825.692,27.401z"/>
		
			<path id="path2676" fill="#F58423" stroke="#000000" stroke-width="2" stroke-linecap="round" stroke-linejoin="round" stroke-miterlimit="3.5032" d="
			M-3979.436,28.386c10.402-22.326,29.629,16.111,2.274,5.342l-1.844-2.343L-3979.436,28.386L-3979.436,28.386z"/>
		
			<path id="path2686" fill="#22BBF5" stroke="#000000" stroke-width="2" stroke-linecap="round" stroke-linejoin="round" stroke-miterlimit="3.5032" d="
			M-3875.831-26.786c7.112,0.688,19.195,21.214,10.428,34.545c14.278,4.763,39.707,13.23,17.496,25.241
			c-21.995-4.714-49.471-15.056-33.364-39.004c0.285-1.091,0.571-2.183,0.856-3.275c0.135-0.509,0.268-1.017,0.4-1.526
			c1.395-5.326,2.509-15.275,4.184-15.98V-26.786z"/>
		
			<path id="path2696" fill="#CACF55" stroke="#000000" stroke-width="2" stroke-linecap="round" stroke-linejoin="round" stroke-miterlimit="3.5032" d="
			M-3715.141-22.948c-18.83,3.908-37.577,8.168-24.717,27.828c7.844,16.81,1.226,33.063-1.538,50.206
			c-4.035,25.051,2.922,51.185,3.633,76.779c1.597,14.736-4.191,48.996,20.862,32.37c1.943-21.855,3.073-67.083,1.261-74.999
			c-0.516,24.862-0.761,49.725-0.813,74.591c23.171,9.433,13.426-28.023,21.028-39.38c5.067-23.919,21.526-50.286,15.201-71.756
			c-6.92-23.491,4.072-52.009-4.354-69.171c-10.188-2.157-20.377-4.313-30.563-6.469V-22.948z"/>
		
			<path id="path2698" fill="#F58423" stroke="#000000" stroke-width="2" stroke-linecap="round" stroke-linejoin="round" stroke-miterlimit="3.5032" d="
			M-3694.962-40.194c-3.418,32.538-50.315,0.461-23.084-16.228C-3705.936-67.701-3690.654-51.575-3694.962-40.194z"/>
		
			<path id="path2596" fill="#22BBF5" stroke="#000000" stroke-width="2" stroke-linecap="round" stroke-linejoin="round" stroke-miterlimit="3.5032" d="
			M-3837.735-38.249c-16.056,6.452-50.215,2.971-36.512,25.925c8.007,26.101,6.307,46.97,3.958,77.999
			c-2.349,31.028,3.385,71.841,5.25,107.748c15.128,1.765,30.255,3.528,25.114-14.589c1.477-28.168,2.951-56.337,4.428-84.508
			c-2.739,32.407-5.48,64.815-8.22,97.225c32.484,8.092,25.313-25.699,30.94-44.422c4.238-23.864,15.424-48.224,12.714-71.592
			s2.506-46.744,3.739-70.061c4.219-13.106,4.566-23.521-13.656-21.021C-3819.23-36.446-3828.481-37.348-3837.735-38.249
			L-3837.735-38.249z"/>
		
			<path id="path2642" fill="#EBB777" stroke="#000000" stroke-width="2" stroke-linecap="round" stroke-linejoin="round" stroke-miterlimit="3.5032" d="
			M-3971.751-20.775c9.194-1.787,14.433,31.042,6.075,46.715c14.063,5.939-2.326,39.042-8.662,15.521
			c-19.977-18.94-2.325-58.561,2.587-62.239V-20.775z"/>
		
			<path id="path2640" sodipodi:nodetypes="csccccccccccc" inkscape:connector-curvature="0" fill="#EBB777" stroke="#000000" stroke-width="2" stroke-linecap="round" stroke-linejoin="round" stroke-miterlimit="3.5032" d="
			M-3926.257-33.542c-7.667,3.761-20.864,0.916-30.716,3.363c-8.553,2.125-14.743,8.951-10.619,18.729
			c2.707,23.605,11.041,47.278,5.154,70.899c-0.211,33.492,4.391,66.959,5.894,100.457c-4.757,15.642,8.56,24.208,23.437,16.169
			c1.986-33.225,3.974-66.446,5.96-99.669c0.605,33.346,1.212,66.694,1.817,100.042c30.674,8.289,18.754-28.072,25.159-43.916
			c3.055-26.165,8.896-52.43,9.537-78.604c-2.026-24.908,6.132-49.484,7.889-74.296c6.96-17.071-31.837-8.477-43.511-13.172
			L-3926.257-33.542z"/>
	</g>
</g>
<rect x="60.622" y="221.585" fill="none" width="698.965" height="116"/>
<text transform="matrix(1 0 0 1 62.1045 237.5449)"><tspan x="0" y="0" font-family="'Inconsolata-Regular'" font-size="24">DSC activities are targeted at University students but not </tspan><tspan x="6" y="28.8" font-family="'Inconsolata-Regular'" font-size="24">limited to those who want to learn more on IT development </tspan><tspan x="30" y="57.6" font-family="'Inconsolata-Regular'" font-size="24">skills &amp; interested to solve real-life problems using </tspan><tspan x="282" y="86.399" font-family="'Inconsolata-Regular'" font-size="24">technology.</tspan></text>
<rect x="241.363" y="159.369" fill="none" width="319.484" height="30.749"/>
<text transform="matrix(1 0 0 1 288.6046 179.3188)" font-family="'Inconsolata-Regular'" font-size="30">Target Audience</text>
</svg>
